<svg xmlns="http://www.w3.org/2000/svg" xmlns:xlink="http://www.w3.org/1999/xlink" width="1080" zoomAndPan="magnify" viewBox="0 0 810 809.999993" height="1080" preserveAspectRatio="xMidYMid meet" version="1.0"><defs><clipPath id="c1c48ab474"><path d="M 14.183594 54.730469 L 795.683594 54.730469 L 795.683594 755.230469 L 14.183594 755.230469 Z M 14.183594 54.730469 " clip-rule="nonzero"/></clipPath></defs><g clip-path="url(#c1c48ab474)"><path fill="#ffda6d" d="M 768.738281 728.324219 L 41.261719 728.324219 L 41.261719 243.335938 L 768.738281 243.335938 Z M 122.089844 149.035156 C 122.089844 141.613281 128.140625 135.5625 135.5625 135.5625 C 142.984375 135.5625 149.035156 141.613281 149.035156 149.035156 C 149.035156 156.453125 142.984375 162.507812 135.5625 162.507812 C 128.140625 162.507812 122.089844 156.453125 122.089844 149.035156 Z M 229.867188 149.035156 C 229.867188 141.613281 235.917969 135.5625 243.335938 135.5625 C 250.757812 135.5625 256.808594 141.613281 256.808594 149.035156 C 256.808594 156.453125 250.757812 162.507812 243.335938 162.507812 C 235.917969 162.507812 229.867188 156.453125 229.867188 149.035156 Z M 337.640625 149.035156 C 337.640625 141.613281 343.691406 135.5625 351.113281 135.5625 C 358.53125 135.5625 364.582031 141.613281 364.582031 149.035156 C 364.582031 156.453125 358.53125 162.507812 351.113281 162.507812 C 343.691406 162.507812 337.640625 156.453125 337.640625 149.035156 Z M 445.414062 149.035156 C 445.414062 141.613281 451.464844 135.5625 458.886719 135.5625 C 466.304688 135.5625 472.359375 141.613281 472.359375 149.035156 C 472.359375 156.453125 466.304688 162.507812 458.886719 162.507812 C 451.464844 162.507812 445.414062 156.453125 445.414062 149.035156 Z M 553.1875 149.035156 C 553.1875 141.613281 559.242188 135.5625 566.660156 135.5625 C 574.082031 135.5625 580.132812 141.613281 580.132812 149.035156 C 580.132812 156.453125 574.082031 162.507812 566.660156 162.507812 C 559.242188 162.507812 553.1875 156.453125 553.1875 149.035156 Z M 660.964844 149.035156 C 660.964844 141.613281 667.015625 135.5625 674.4375 135.5625 C 681.855469 135.5625 687.90625 141.613281 687.90625 149.035156 C 687.90625 156.453125 681.855469 162.507812 674.4375 162.507812 C 667.015625 162.507812 660.964844 156.453125 660.964844 149.035156 Z M 68.203125 81.675781 L 741.792969 81.675781 L 741.792969 216.394531 L 687.90625 216.394531 L 687.90625 187.132812 C 703.589844 181.554688 714.851562 166.609375 714.851562 149.035156 C 714.851562 126.722656 696.75 108.621094 674.4375 108.621094 C 652.121094 108.621094 634.019531 126.722656 634.019531 149.035156 C 634.019531 166.609375 645.28125 181.554688 660.964844 187.132812 L 660.964844 216.394531 L 580.132812 216.394531 L 580.132812 187.132812 C 595.816406 181.554688 607.078125 166.609375 607.078125 149.035156 C 607.078125 126.722656 588.972656 108.621094 566.660156 108.621094 C 544.347656 108.621094 526.246094 126.722656 526.246094 149.035156 C 526.246094 166.609375 537.507812 181.554688 553.1875 187.132812 L 553.1875 216.394531 L 472.359375 216.394531 L 472.359375 187.132812 C 488.039062 181.554688 499.300781 166.609375 499.300781 149.035156 C 499.300781 126.722656 481.199219 108.621094 458.886719 108.621094 C 436.574219 108.621094 418.472656 126.722656 418.472656 149.035156 C 418.472656 166.609375 429.734375 181.554688 445.414062 187.132812 L 445.414062 216.394531 L 364.582031 216.394531 L 364.582031 187.132812 C 380.265625 181.554688 391.527344 166.609375 391.527344 149.035156 C 391.527344 126.722656 373.425781 108.621094 351.113281 108.621094 C 328.800781 108.621094 310.695312 126.722656 310.695312 149.035156 C 310.695312 166.609375 321.957031 181.554688 337.640625 187.132812 L 337.640625 216.394531 L 256.808594 216.394531 L 256.808594 187.132812 C 272.492188 181.554688 283.753906 166.609375 283.753906 149.035156 C 283.753906 126.722656 265.648438 108.621094 243.335938 108.621094 C 221.023438 108.621094 202.921875 126.722656 202.921875 149.035156 C 202.921875 166.609375 214.183594 181.554688 229.867188 187.132812 L 229.867188 216.394531 L 149.035156 216.394531 L 149.035156 187.132812 C 164.714844 181.554688 175.976562 166.609375 175.976562 149.035156 C 175.976562 126.722656 157.875 108.621094 135.5625 108.621094 C 113.25 108.621094 95.148438 126.722656 95.148438 149.035156 C 95.148438 166.609375 106.410156 181.554688 122.089844 187.132812 L 122.089844 216.394531 L 68.203125 216.394531 Z M 782.210938 216.394531 L 768.738281 216.394531 L 768.738281 68.203125 C 768.738281 60.785156 762.6875 54.730469 755.265625 54.730469 L 54.730469 54.730469 C 47.3125 54.730469 41.261719 60.785156 41.261719 68.203125 L 41.261719 216.394531 L 27.789062 216.394531 C 20.367188 216.394531 14.316406 222.445312 14.316406 229.867188 L 14.316406 741.796875 C 14.316406 749.214844 20.367188 755.265625 27.789062 755.265625 L 782.210938 755.265625 C 789.628906 755.265625 795.683594 749.214844 795.683594 741.796875 L 795.683594 229.867188 C 795.683594 222.445312 789.628906 216.394531 782.210938 216.394531 " fill-opacity="1" fill-rule="nonzero"/></g><path fill="#ffda6d" d="M 580.132812 337.640625 L 607.078125 337.640625 L 607.078125 364.582031 L 580.132812 364.582031 Z M 607.078125 337.640625 L 620.546875 337.640625 Z M 580.132812 391.527344 L 607.078125 391.527344 C 621.917969 391.527344 634.019531 379.425781 634.019531 364.582031 L 634.019531 337.640625 C 634.019531 322.800781 621.917969 310.695312 607.078125 310.695312 L 580.132812 310.695312 C 565.292969 310.695312 553.1875 322.800781 553.1875 337.640625 L 553.1875 364.582031 C 553.1875 379.425781 565.292969 391.527344 580.132812 391.527344 " fill-opacity="1" fill-rule="nonzero"/><path fill="#ffda6d" d="M 607.078125 499.300781 L 620.546875 499.300781 Z M 607.078125 526.246094 L 580.132812 526.246094 L 580.132812 499.300781 L 607.078125 499.300781 Z M 634.019531 499.300781 C 634.019531 484.460938 621.917969 472.359375 607.078125 472.359375 L 580.132812 472.359375 C 565.292969 472.359375 553.1875 484.460938 553.1875 499.300781 L 553.1875 526.246094 C 553.1875 541.085938 565.292969 553.191406 580.132812 553.191406 L 607.078125 553.191406 C 621.917969 553.191406 634.019531 541.085938 634.019531 526.246094 L 634.019531 499.300781 " fill-opacity="1" fill-rule="nonzero"/><path fill="#ffda6d" d="M 499.300781 418.472656 L 526.246094 418.472656 L 526.246094 445.414062 L 499.300781 445.414062 Z M 526.246094 418.472656 L 539.71875 418.472656 Z M 499.300781 472.359375 L 526.246094 472.359375 C 541.085938 472.359375 553.1875 460.253906 553.1875 445.414062 L 553.1875 418.472656 C 553.1875 403.632812 541.085938 391.527344 526.246094 391.527344 L 499.300781 391.527344 C 484.460938 391.527344 472.359375 403.632812 472.359375 418.472656 L 472.359375 445.414062 C 472.359375 460.253906 484.460938 472.359375 499.300781 472.359375 " fill-opacity="1" fill-rule="nonzero"/><path fill="#ffda6d" d="M 526.246094 607.078125 L 539.71875 607.078125 Z M 526.246094 634.019531 L 499.300781 634.019531 L 499.300781 607.078125 L 526.246094 607.078125 Z M 526.246094 580.132812 L 499.300781 580.132812 C 484.460938 580.132812 472.359375 592.238281 472.359375 607.078125 L 472.359375 634.019531 C 472.359375 648.859375 484.460938 660.964844 499.300781 660.964844 L 526.246094 660.964844 C 541.085938 660.964844 553.1875 648.859375 553.1875 634.019531 L 553.1875 607.078125 C 553.1875 592.238281 541.085938 580.132812 526.246094 580.132812 " fill-opacity="1" fill-rule="nonzero"/><path fill="#ffda6d" d="M 687.90625 607.078125 L 701.378906 607.078125 Z M 687.90625 634.019531 L 660.964844 634.019531 L 660.964844 607.078125 L 687.90625 607.078125 Z M 687.90625 580.132812 L 660.964844 580.132812 C 646.125 580.132812 634.019531 592.238281 634.019531 607.078125 L 634.019531 634.019531 C 634.019531 648.859375 646.125 660.964844 660.964844 660.964844 L 687.90625 660.964844 C 702.746094 660.964844 714.851562 648.859375 714.851562 634.019531 L 714.851562 607.078125 C 714.851562 592.238281 702.746094 580.132812 687.90625 580.132812 " fill-opacity="1" fill-rule="nonzero"/><path fill="#ffda6d" d="M 687.90625 418.472656 L 701.378906 418.472656 Z M 687.90625 445.414062 L 660.964844 445.414062 L 660.964844 418.472656 L 687.90625 418.472656 Z M 687.90625 391.527344 L 660.964844 391.527344 C 646.125 391.527344 634.019531 403.632812 634.019531 418.472656 L 634.019531 445.414062 C 634.019531 460.253906 646.125 472.359375 660.964844 472.359375 L 687.90625 472.359375 C 702.746094 472.359375 714.851562 460.253906 714.851562 445.414062 L 714.851562 418.472656 C 714.851562 403.632812 702.746094 391.527344 687.90625 391.527344 " fill-opacity="1" fill-rule="nonzero"/><path fill="#ffda6d" d="M 391.527344 607.078125 L 122.089844 607.078125 L 122.089844 364.582031 L 391.527344 364.582031 Z M 405 337.640625 L 351.113281 337.640625 L 351.113281 297.226562 C 351.113281 289.804688 345.058594 283.753906 337.640625 283.753906 C 330.21875 283.753906 324.167969 289.804688 324.167969 297.226562 L 324.167969 337.640625 L 270.28125 337.640625 L 270.28125 297.226562 C 270.28125 289.804688 264.230469 283.753906 256.808594 283.753906 C 249.390625 283.753906 243.335938 289.804688 243.335938 297.226562 L 243.335938 337.640625 L 189.449219 337.640625 L 189.449219 297.226562 C 189.449219 289.804688 183.398438 283.753906 175.976562 283.753906 C 168.558594 283.753906 162.507812 289.804688 162.507812 297.226562 L 162.507812 337.640625 L 108.617188 337.640625 C 101.199219 337.640625 95.148438 343.691406 95.148438 351.113281 L 95.148438 620.546875 C 95.148438 627.96875 101.199219 634.019531 108.617188 634.019531 L 162.507812 634.019531 L 162.507812 674.4375 C 162.507812 681.855469 168.558594 687.90625 175.976562 687.90625 C 183.398438 687.90625 189.449219 681.855469 189.449219 674.4375 L 189.449219 634.019531 L 243.335938 634.019531 L 243.335938 674.4375 C 243.335938 681.855469 249.390625 687.90625 256.808594 687.90625 C 264.230469 687.90625 270.28125 681.855469 270.28125 674.4375 L 270.28125 634.019531 L 324.167969 634.019531 L 324.167969 674.4375 C 324.167969 681.855469 330.21875 687.90625 337.640625 687.90625 C 345.058594 687.90625 351.113281 681.855469 351.113281 674.4375 L 351.113281 634.019531 L 405 634.019531 C 412.417969 634.019531 418.472656 627.96875 418.472656 620.546875 L 418.472656 351.113281 C 418.472656 343.691406 412.417969 337.640625 405 337.640625 " fill-opacity="1" fill-rule="nonzero"/></svg>