<svg xmlns="http://www.w3.org/2000/svg" xmlns:xlink="http://www.w3.org/1999/xlink" width="1080" zoomAndPan="magnify" viewBox="0 0 810 809.999993" height="1080" preserveAspectRatio="xMidYMid meet" version="1.0"><defs><filter x="0%" y="0%" width="100%" height="100%" id="4c6074a55b"><feColorMatrix values="0 0 0 0 1 0 0 0 0 1 0 0 0 0 1 0 0 0 1 0" color-interpolation-filters="sRGB"/></filter><mask id="746254479f"><g filter="url(#4c6074a55b)"><rect x="-81" width="972" fill="#000000" y="-80.999999" height="971.999992" fill-opacity="0.25"/></g></mask><clipPath id="bc3266155a"><path d="M 0.691406 0.609375 L 741.019531 0.609375 L 741.019531 89.585938 L 0.691406 89.585938 Z M 0.691406 0.609375 " clip-rule="nonzero"/></clipPath><clipPath id="745f05df32"><rect x="0" width="742" y="0" height="90"/></clipPath><mask id="b52415a47a"><g filter="url(#4c6074a55b)"><rect x="-81" width="972" fill="#000000" y="-80.999999" height="971.999992" fill-opacity="0.25"/></g></mask><clipPath id="53c9133ad0"><path d="M 0.164062 0.632812 L 679.835938 0.632812 L 679.835938 89.609375 L 0.164062 89.609375 Z M 0.164062 0.632812 " clip-rule="nonzero"/></clipPath><clipPath id="cc6a6d5cb2"><rect x="0" width="681" y="0" height="90"/></clipPath><mask id="4238a235a2"><g filter="url(#4c6074a55b)"><rect x="-81" width="972" fill="#000000" y="-80.999999" height="971.999992" fill-opacity="0.25"/></g></mask><clipPath id="4635851c26"><path d="M 0.5625 0.882812 L 624.5 0.882812 L 624.5 28.632812 L 0.5625 28.632812 Z M 0.5625 0.882812 " clip-rule="nonzero"/></clipPath><clipPath id="b83bd847b3"><rect x="0" width="625" y="0" height="29"/></clipPath></defs><g mask="url(#746254479f)"><g transform="matrix(1, 0, 0, 1, 36, 693)"><g clip-path="url(#745f05df32)"><g clip-path="url(#bc3266155a)"><path fill="#ffda6d" d="M 0.691406 0.609375 L 741.011719 0.609375 L 741.011719 89.585938 L 0.691406 89.585938 Z M 0.691406 0.609375 " fill-opacity="1" fill-rule="nonzero"/></g></g></g></g><g mask="url(#b52415a47a)"><g transform="matrix(1, 0, 0, 1, 68, 604)"><g clip-path="url(#cc6a6d5cb2)"><g clip-path="url(#53c9133ad0)"><path fill="#ffda6d" d="M 0.164062 0.632812 L 680.007812 0.632812 L 680.007812 89.609375 L 0.164062 89.609375 Z M 0.164062 0.632812 " fill-opacity="1" fill-rule="nonzero"/></g></g></g></g><g mask="url(#4238a235a2)"><g transform="matrix(1, 0, 0, 1, 95, 576)"><g clip-path="url(#b83bd847b3)"><g clip-path="url(#4635851c26)"><path fill="#ffda6d" d="M 0.5625 0.882812 L 624.503906 0.882812 L 624.503906 28.632812 L 0.5625 28.632812 Z M 0.5625 0.882812 " fill-opacity="1" fill-rule="nonzero"/></g></g></g></g><path fill="#ffda6d" d="M 799.019531 739.265625 L 736.617188 583.238281 C 734.894531 578.933594 732.570312 575.023438 729.820312 571.515625 C 738.027344 562.339844 743.179688 550.359375 743.179688 537.078125 L 743.179688 146.480469 C 743.179688 117.917969 719.832031 94.566406 691.269531 94.566406 L 582.472656 94.566406 L 543.972656 130.210938 L 691.269531 130.210938 C 700.210938 130.210938 707.539062 137.539062 707.539062 146.480469 L 707.539062 537.078125 C 707.539062 545.921875 700.351562 553.253906 691.542969 553.414062 L 118.574219 553.414062 C 109.644531 553.253906 102.457031 545.921875 102.457031 537.078125 L 102.457031 146.480469 C 102.457031 137.539062 109.785156 130.210938 118.851562 130.210938 L 400.402344 130.210938 L 433.4375 94.566406 L 118.851562 94.566406 C 90.160156 94.566406 66.8125 117.917969 66.8125 146.480469 L 66.8125 537.078125 C 66.8125 550.355469 71.964844 562.332031 80.183594 571.511719 C 77.429688 575.023438 75.105469 578.9375 73.378906 583.25 L 10.972656 739.265625 C 5.113281 753.902344 6.898438 770.445312 15.738281 783.492188 C 24.578125 796.546875 39.269531 804.347656 55.039062 804.347656 L 754.957031 804.347656 C 770.726562 804.347656 785.417969 796.546875 794.257812 783.492188 C 803.097656 770.433594 804.882812 753.902344 799.019531 739.265625 Z M 764.78125 763.539062 C 763.726562 765.105469 760.644531 768.753906 754.957031 768.753906 L 55.039062 768.753906 C 49.355469 768.753906 46.269531 765.105469 45.207031 763.539062 C 44.148438 761.976562 41.90625 757.757812 44.015625 752.476562 L 106.425781 596.46875 C 108.238281 591.9375 112.5625 589.007812 117.441406 589.007812 L 692.554688 589.007812 C 697.429688 589.007812 701.753906 591.9375 703.570312 596.457031 L 765.976562 752.488281 C 768.082031 757.757812 765.847656 761.976562 764.78125 763.539062 Z M 764.78125 763.539062 " fill-opacity="1" fill-rule="nonzero"/><path fill="#ffda6d" d="M 472.230469 668.871094 L 337.769531 668.871094 C 333.5 668.871094 329.828125 671.90625 329.027344 676.101562 L 317.164062 738.386719 C 316.664062 740.996094 317.359375 743.683594 319.050781 745.734375 C 320.738281 747.773438 323.253906 748.953125 325.90625 748.953125 L 484.097656 748.953125 C 486.75 748.953125 489.261719 747.773438 490.957031 745.734375 C 492.648438 743.683594 493.332031 740.996094 492.832031 738.386719 L 480.96875 676.101562 C 480.167969 671.90625 476.507812 668.871094 472.230469 668.871094 Z M 336.65625 731.15625 L 345.132812 686.667969 L 464.863281 686.667969 L 473.34375 731.15625 Z M 336.65625 731.15625 " fill-opacity="1" fill-rule="nonzero"/><path fill="#ffda6d" d="M 549.4375 258.507812 C 538.382812 246.582031 523.355469 239.878906 507.085938 239.378906 C 491.066406 238.882812 475.539062 244.722656 463.742188 255.773438 C 451.945312 266.953125 445.113281 281.855469 444.617188 298.125 C 444.492188 306.320312 442.753906 314.394531 439.773438 322.09375 C 438.53125 325.449219 436.171875 329.671875 434.183594 333.148438 C 431.949219 336.625 429.339844 340.597656 426.109375 343.953125 C 414.683594 357.488281 397.421875 367.054688 379.039062 370.160156 C 358.921875 373.386719 337.683594 369.414062 320.667969 359.351562 C 315.203125 356.25 309.988281 352.523438 305.144531 348.175781 C 301.667969 348.546875 298.066406 348.671875 294.339844 348.796875 L 291.980469 348.921875 C 286.761719 348.921875 275.710938 348.425781 263.042969 344.945312 C 273.847656 361.960938 288.5 375.871094 305.515625 385.558594 C 328.367188 398.847656 356.808594 404.1875 383.882812 399.964844 C 409.59375 395.617188 432.816406 382.703125 448.714844 364.074219 C 453.308594 359.105469 456.664062 353.886719 459.890625 348.796875 C 462.75 343.953125 465.851562 338.363281 467.839844 332.898438 C 472.0625 322.09375 474.421875 310.792969 474.796875 298.996094 C 475.042969 290.921875 478.394531 283.34375 484.359375 277.757812 C 490.320312 272.292969 498.019531 269.3125 506.21875 269.558594 C 514.414062 269.683594 521.863281 273.160156 527.578125 279.121094 C 533.042969 285.085938 536.023438 292.785156 535.777344 300.980469 C 535.652344 302.84375 535.527344 304.707031 535.03125 306.320312 L 534.53125 309.425781 C 530.433594 327.433594 523.605469 344.078125 513.917969 359.230469 C 508.949219 367.425781 503.234375 374.132812 498.144531 379.96875 C 491.3125 387.671875 485.226562 393.382812 478.894531 398.101562 C 452.8125 419.214844 418.535156 431.140625 385.003906 430.640625 C 351.71875 430.019531 320.171875 418.59375 295.953125 398.226562 C 278.070312 383.445312 264.53125 364.445312 256.707031 342.960938 C 245.53125 338.859375 233.980469 332.527344 224.789062 321.847656 C 222.925781 319.859375 221.4375 317.625 220.320312 315.265625 C 219.449219 319.113281 219.574219 323.210938 220.320312 327.0625 C 227.644531 363.949219 247.640625 397.480469 276.703125 421.328125 C 305.890625 446.042969 344.265625 460.074219 384.503906 460.820312 L 386.863281 460.820312 C 427.105469 460.820312 466.351562 447.035156 497.648438 421.824219 C 505.097656 416.109375 512.300781 409.40625 520.746094 400.089844 C 526.585938 393.382812 533.414062 385.1875 539.5 375.375 C 550.925781 357.367188 559.125 337.371094 563.84375 316.007812 L 564.589844 312.902344 C 565.332031 309.304688 565.832031 305.578125 565.953125 301.851562 C 566.453125 285.582031 560.613281 270.304688 549.4375 258.507812 Z M 549.4375 258.507812 " fill-opacity="1" fill-rule="nonzero"/><path fill="#ffda6d" d="M 578.574219 19.207031 C 563.820312 5.539062 540.695312 6.390625 527.007812 21.152344 L 345.703125 216.632812 C 297.113281 217.496094 271.667969 254.503906 264.257812 276.414062 C 262.816406 278.628906 259.472656 282.417969 251.625 282.417969 C 251.542969 282.417969 251.464844 282.417969 251.390625 282.417969 C 244.710938 282.605469 239.085938 286.082031 236.378906 291.917969 C 233.652344 297.804688 234.617188 304.769531 238.839844 309.667969 C 255.359375 328.828125 283.882812 330.257812 291.984375 330.257812 C 292.878906 330.257812 293.527344 330.242188 293.875 330.234375 C 323.46875 329.570312 346.664062 320.574219 362.8125 303.492188 C 379.855469 285.46875 383.980469 263.410156 384.960938 252.296875 L 578.582031 72.722656 C 579.226562 72.125 579.910156 71.445312 580.519531 70.785156 C 587.148438 63.640625 590.601562 54.335938 590.226562 44.59375 C 589.863281 34.855469 585.726562 25.839844 578.574219 19.207031 Z M 293.148438 304.105469 C 289.570312 304.238281 282.34375 303.773438 275.105469 301.792969 C 280.179688 298.425781 284.433594 293.875 287.601562 288.28125 L 288.714844 285.703125 C 289.25 283.988281 301.085938 247.453125 340.027344 243.203125 C 341.179688 246.65625 342.980469 249.929688 345.585938 252.742188 C 348.804688 256.210938 352.839844 258.597656 357.25 259.945312 C 355.355469 267.679688 351.570312 277.34375 343.824219 285.535156 C 332.644531 297.355469 315.648438 303.601562 293.148438 304.105469 Z M 560.808594 53.566406 L 371.933594 227.898438 L 371.367188 227.390625 L 546.167969 38.925781 C 548.207031 36.726562 550.984375 35.617188 553.765625 35.617188 C 556.28125 35.617188 558.816406 36.53125 560.808594 38.375 C 562.832031 40.257812 564.007812 42.816406 564.109375 45.582031 C 564.21875 48.347656 563.242188 50.984375 560.808594 53.566406 Z M 560.808594 53.566406 " fill-opacity="1" fill-rule="nonzero"/></svg>